<svg version="1.0" xmlns="http://www.w3.org/2000/svg"
 width="2560.000000pt" height="773.000000pt" viewBox="0 0 2560.000000 773.000000"
 preserveAspectRatio="xMidYMid meet">

<g transform="translate(0.000000,773.000000) scale(0.100000,-0.100000)"
fill="#00499a" stroke="none">
<path fill="#e51e0b" d="M21510 7323 c-276 -26 -436 -52 -630 -102 -210 -55 -447 -138 -433
-152 22 -21 226 -101 246 -96 12 2 76 21 143 40 147 43 318 80 484 104 99 14
189 18 435 17 271 0 328 -3 455 -23 252 -39 468 -94 679 -173 112 -42 324
-139 317 -145 -2 -2 -84 3 -182 12 -184 16 -482 18 -634 4 -47 -4 -114 -11
-150 -14 -62 -5 -236 -29 -290 -40 -14 -3 -51 -10 -83 -15 -85 -16 -395 -97
-449 -118 l-47 -18 137 -89 c954 -626 1438 -1346 1373 -2042 -35 -369 -183
-665 -484 -965 l-137 -138 1183 0 c1054 0 1185 -2 1205 -16 26 -18 28 -45 5
-67 -12 -10 -566 -132 -1578 -347 -858 -182 -1789 -380 -2070 -440 -280 -60
-618 -131 -750 -159 -1024 -217 -1445 -308 -1451 -313 -9 -9 124 -199 242
-347 528 -657 1302 -1108 2138 -1246 207 -34 348 -45 566 -45 828 0 1587 276
2240 813 127 105 352 336 465 477 421 526 679 1151 750 1815 21 198 21 545 0
735 -102 913 -553 1747 -1255 2321 -153 125 -293 229 -305 227 -5 -1 -61 28
-122 65 -543 323 -1161 491 -1792 485 -102 0 -202 -3 -221 -5z"/>
<path fill="#e51e0b"  d="M20083 6906 c-299 -167 -542 -349 -775 -580 -558 -553 -896 -1240
-1004 -2041 -23 -165 -26 -635 -6 -800 40 -320 116 -626 224 -900 61 -153 160
-355 174 -355 7 0 75 14 151 31 826 186 1384 529 1737 1069 159 242 263 490
346 822 159 639 123 1287 -101 1858 -64 162 -129 285 -150 284 -13 -1 -70 -32
-174 -97 -11 -6 -23 -16 -27 -22 -4 -5 -8 -6 -8 -2 0 4 -10 -1 -22 -13 -12
-11 -27 -20 -34 -20 -7 0 -14 -4 -16 -8 -1 -4 -19 -18 -39 -30 -39 -24 -250
-180 -259 -191 -3 -4 -27 -24 -55 -46 -124 -98 -415 -387 -520 -516 -232 -287
-368 -495 -524 -804 -95 -189 -114 -233 -210 -490 -87 -234 -157 -538 -199
-865 l-18 -134 -22 92 c-96 401 -106 897 -26 1323 171 913 731 1719 1532 2203
52 31 131 75 175 98 45 22 84 42 86 44 6 6 -26 39 -89 94 l-55 47 -92 -51z"/>
<path  d="M12920 6759 c-166 -19 -352 -84 -475 -164 -82 -53 -202 -177 -248
-255 -63 -109 -89 -206 -95 -351 -8 -222 44 -367 182 -505 161 -161 333 -232
791 -329 355 -76 445 -119 445 -217 0 -144 -174 -219 -455 -197 -233 19 -463
114 -644 267 -52 45 -65 52 -76 41 -22 -24 -325 -477 -325 -486 0 -5 28 -32
63 -60 248 -201 544 -309 908 -332 654 -41 1082 200 1175 661 22 110 15 305
-15 398 -58 182 -200 327 -414 424 -132 60 -218 85 -642 182 -169 38 -268 76
-310 118 -20 20 -25 35 -25 73 0 151 174 204 486 148 152 -28 299 -88 433
-178 46 -32 87 -57 90 -57 5 0 174 229 330 447 28 39 36 29 -94 117 -310 210
-694 300 -1085 255z"/>
<path  d="M150 6450 l0 -280 353 -2 352 -3 3 -977 2 -978 320 0 320 0 2 978 3
977 353 3 352 2 0 280 0 280 -1030 0 -1030 0 0 -280z"/>
<path d="M2633 5898 c3 -819 4 -835 26 -933 45 -199 116 -338 239 -467 132
-138 289 -227 497 -281 145 -38 248 -49 445 -48 579 1 959 225 1109 655 64
182 63 170 68 1079 l5 827 -331 0 -331 0 0 -765 c0 -848 -1 -862 -63 -979 -86
-161 -246 -246 -467 -246 -268 0 -447 122 -518 353 -14 45 -17 155 -19 845
l-4 792 -330 0 -330 0 4 -832z"/>
<path  d="M5640 5471 l0 -1261 320 0 320 0 2 423 3 422 169 0 c140 0 170 -3
178 -15 4 -8 99 -198 209 -422 l201 -408 369 0 c204 0 368 3 366 8 -2 4 -115
208 -250 453 -136 245 -247 450 -247 455 0 5 31 23 68 41 196 92 348 281 403
503 19 74 21 103 16 240 -4 117 -10 173 -27 229 -73 254 -254 447 -497 532
-152 53 -139 52 -895 56 l-708 4 0 -1260z m1316 661 c103 -47 157 -130 157
-242 0 -114 -52 -189 -169 -242 -47 -22 -61 -23 -356 -26 l-308 -4 0 272 0
271 313 -3 c301 -3 314 -4 363 -26z"/>
<path d="M8300 5470 l0 -1260 325 0 325 0 0 371 0 371 82 104 c46 57 86 100
89 96 4 -4 154 -217 333 -474 l327 -468 395 0 c307 0 394 3 388 12 -4 7 -232
304 -507 661 -274 357 -501 655 -503 662 -4 11 592 742 924 1133 l44 52 -400
0 -400 0 -386 -516 -386 -516 0 516 0 516 -325 0 -325 0 0 -1260z"/>
<path d="M10930 5470 l0 -1260 325 0 325 0 0 1260 0 1260 -325 0 -325 0 0
-1260z"/>
<path d="M14650 5470 l0 -1260 325 0 325 0 0 505 0 505 525 0 525 0 0 -505 0
-505 320 0 320 0 0 1260 0 1260 -320 0 -320 0 0 -470 0 -470 -525 0 -525 0 0
470 0 470 -325 0 -325 0 0 -1260z"/>
<path d="M15950 3554 c-259 -30 -432 -92 -589 -212 -94 -72 -161 -155 -216
-267 -129 -265 -90 -591 95 -788 150 -161 349 -247 770 -336 244 -51 335 -76
394 -109 64 -35 89 -69 88 -121 -1 -81 -68 -145 -184 -177 -63 -17 -255 -20
-348 -5 -190 31 -397 123 -544 242 -48 39 -92 67 -96 63 -17 -19 -330 -485
-330 -492 0 -8 93 -84 165 -134 122 -85 286 -158 451 -201 132 -35 213 -47
374 -56 615 -36 1031 185 1147 609 28 101 26 351 -4 445 -59 188 -208 338
-432 435 -124 54 -226 83 -500 145 -332 75 -417 107 -451 170 -22 41 -8 111
31 151 49 50 113 68 244 67 229 -1 442 -67 634 -197 47 -31 88 -55 93 -54 4 2
84 108 178 237 198 269 192 235 55 326 -254 169 -523 253 -835 260 -85 2 -171
1 -190 -1z"/>
<path d="M945 3503 c-41 -107 -929 -2473 -933 -2485 -4 -17 18 -18 361 -18
l365 0 13 38 c6 20 34 101 61 180 l50 142 501 -2 500 -3 60 -177 59 -178 367
0 368 0 -339 903 c-187 496 -399 1062 -473 1257 l-133 355 -410 3 c-383 2
-410 1 -417 -15z m576 -1090 c83 -252 154 -464 157 -470 3 -10 -65 -13 -318
-13 -303 0 -322 1 -315 18 3 9 72 211 152 447 163 481 161 475 167 475 2 0 73
-206 157 -457z"/>
<path  d="M2980 2260 l0 -1260 325 0 325 0 0 1260 0 1260 -325 0 -325 0 0
-1260z"/>
<path d="M4170 2260 l0 -1260 320 0 320 0 2 423 3 422 165 3 165 2 212 -425
213 -425 371 0 c293 0 370 3 366 13 -2 6 -115 212 -251 456 -135 245 -246 447
-245 450 0 3 41 26 90 50 286 140 443 457 400 806 -16 130 -35 198 -86 300
-127 259 -366 408 -695 435 -63 5 -393 10 -732 10 l-618 0 0 -1260z m1317 661
c135 -60 195 -211 138 -347 -22 -52 -72 -100 -137 -130 l-63 -29 -307 -3 -308
-3 0 271 0 271 313 -3 c303 -3 313 -4 364 -27z"/>
<path d="M6730 2260 l0 -1260 830 0 830 0 0 280 0 280 -505 0 -505 0 0 980 0
980 -325 0 -325 0 0 -1260z"/>
<path d="M8800 2260 l0 -1260 325 0 325 0 0 1260 0 1260 -325 0 -325 0 0
-1260z"/>
<path  d="M9990 2260 l0 -1260 320 0 320 0 0 725 c0 399 3 725 8 725 4 0 245
-327 536 -725 l528 -725 314 0 314 0 0 1260 0 1260 -325 0 -325 0 0 -691 c0
-552 -3 -689 -12 -681 -7 6 -238 317 -513 691 l-500 680 -332 1 -333 0 0
-1260z"/>
<path  d="M12860 2260 l0 -1260 925 0 925 0 0 280 0 280 -600 0 -600 0 0 215 0
215 585 0 585 0 0 285 0 285 -585 0 -585 0 0 200 0 200 600 0 600 0 0 280 0
280 -925 0 -925 0 0 -1260z"/>
</g>
</svg>
